<mxfile host="app.diagrams.net" modified="2022-06-07T14:03:54.695Z" agent="5.0 (Windows NT 10.0; Win64; x64) AppleWebKit/537.36 (KHTML, like Gecko) Chrome/102.0.0.0 Safari/537.36" etag="-7frDcx1zEjWRn1ju2yJ" version="18.0.2" type="github">
  <diagram id="5TSwQCgZZqwG2r8Db2Hl" name="第 1 页">
    <mxGraphModel dx="743" dy="-603" grid="0" gridSize="10" guides="1" tooltips="1" connect="1" arrows="1" fold="1" page="1" pageScale="1" pageWidth="1169" pageHeight="827" math="0" shadow="0">
      <root>
        <mxCell id="0" />
        <mxCell id="1" parent="0" />
        <mxCell id="plPKPClmP0drWRGpargK-5" value="" style="rounded=1;whiteSpace=wrap;html=1;fontFamily=Times New Roman;fontSize=29;" vertex="1" parent="1">
          <mxGeometry x="244" y="1702" width="293" height="383" as="geometry" />
        </mxCell>
        <mxCell id="plPKPClmP0drWRGpargK-4" style="edgeStyle=orthogonalEdgeStyle;rounded=0;orthogonalLoop=1;jettySize=auto;html=1;exitX=0.5;exitY=0;exitDx=0;exitDy=0;entryX=0.5;entryY=1;entryDx=0;entryDy=0;fontFamily=Times New Roman;fontSize=29;" edge="1" parent="1" source="plPKPClmP0drWRGpargK-1" target="plPKPClmP0drWRGpargK-3">
          <mxGeometry relative="1" as="geometry" />
        </mxCell>
        <mxCell id="plPKPClmP0drWRGpargK-1" value="Input Sentence" style="rounded=1;whiteSpace=wrap;html=1;fontStyle=1;fontFamily=Times New Roman;fontSize=29;" vertex="1" parent="1">
          <mxGeometry x="57" y="2362" width="238" height="67" as="geometry" />
        </mxCell>
        <mxCell id="plPKPClmP0drWRGpargK-16" style="edgeStyle=orthogonalEdgeStyle;rounded=0;orthogonalLoop=1;jettySize=auto;html=1;exitX=0.5;exitY=0;exitDx=0;exitDy=0;entryX=0.5;entryY=1;entryDx=0;entryDy=0;fontFamily=Times New Roman;fontSize=29;endArrow=classic;endFill=1;" edge="1" parent="1" source="plPKPClmP0drWRGpargK-3" target="plPKPClmP0drWRGpargK-10">
          <mxGeometry relative="1" as="geometry" />
        </mxCell>
        <mxCell id="plPKPClmP0drWRGpargK-3" value="BERT" style="rounded=1;whiteSpace=wrap;html=1;fontStyle=1;fontFamily=Times New Roman;fontSize=29;" vertex="1" parent="1">
          <mxGeometry x="57" y="2239" width="238" height="67" as="geometry" />
        </mxCell>
        <mxCell id="plPKPClmP0drWRGpargK-6" value="Add &amp;amp; Norm" style="rounded=1;whiteSpace=wrap;html=1;fontFamily=Times New Roman;fontSize=29;" vertex="1" parent="1">
          <mxGeometry x="333" y="1729" width="183" height="43" as="geometry" />
        </mxCell>
        <mxCell id="plPKPClmP0drWRGpargK-8" style="edgeStyle=orthogonalEdgeStyle;rounded=0;orthogonalLoop=1;jettySize=auto;html=1;exitX=0.5;exitY=0;exitDx=0;exitDy=0;entryX=0.5;entryY=1;entryDx=0;entryDy=0;fontFamily=Times New Roman;fontSize=29;endArrow=none;endFill=0;" edge="1" parent="1" source="plPKPClmP0drWRGpargK-7" target="plPKPClmP0drWRGpargK-6">
          <mxGeometry relative="1" as="geometry" />
        </mxCell>
        <mxCell id="plPKPClmP0drWRGpargK-7" value="Feed&lt;br&gt;Forward" style="rounded=1;whiteSpace=wrap;html=1;fontFamily=Times New Roman;fontSize=29;" vertex="1" parent="1">
          <mxGeometry x="333" y="1788" width="183" height="68" as="geometry" />
        </mxCell>
        <mxCell id="plPKPClmP0drWRGpargK-9" value="Add &amp;amp; Norm" style="rounded=1;whiteSpace=wrap;html=1;fontFamily=Times New Roman;fontSize=29;" vertex="1" parent="1">
          <mxGeometry x="333" y="1886" width="183" height="43" as="geometry" />
        </mxCell>
        <mxCell id="plPKPClmP0drWRGpargK-13" style="edgeStyle=orthogonalEdgeStyle;rounded=0;orthogonalLoop=1;jettySize=auto;html=1;exitX=0.5;exitY=0;exitDx=0;exitDy=0;entryX=0.5;entryY=1;entryDx=0;entryDy=0;fontFamily=Times New Roman;fontSize=29;endArrow=none;endFill=0;" edge="1" parent="1" source="plPKPClmP0drWRGpargK-10" target="plPKPClmP0drWRGpargK-9">
          <mxGeometry relative="1" as="geometry" />
        </mxCell>
        <mxCell id="plPKPClmP0drWRGpargK-10" value="Multi-Head&lt;br&gt;Attention" style="rounded=1;whiteSpace=wrap;html=1;fontFamily=Times New Roman;fontSize=29;" vertex="1" parent="1">
          <mxGeometry x="333" y="1953" width="183" height="68" as="geometry" />
        </mxCell>
        <mxCell id="plPKPClmP0drWRGpargK-19" value="" style="endArrow=classic;html=1;rounded=1;fontFamily=Times New Roman;fontSize=29;entryX=0.25;entryY=1;entryDx=0;entryDy=0;edgeStyle=orthogonalEdgeStyle;" edge="1" parent="1" target="plPKPClmP0drWRGpargK-10">
          <mxGeometry width="50" height="50" relative="1" as="geometry">
            <mxPoint x="426" y="2057" as="sourcePoint" />
            <mxPoint x="374" y="2067" as="targetPoint" />
            <Array as="points">
              <mxPoint x="424" y="2057" />
              <mxPoint x="424" y="2048" />
              <mxPoint x="379" y="2048" />
            </Array>
          </mxGeometry>
        </mxCell>
        <mxCell id="plPKPClmP0drWRGpargK-20" value="" style="endArrow=classic;html=1;rounded=1;fontFamily=Times New Roman;fontSize=29;entryX=0.25;entryY=1;entryDx=0;entryDy=0;edgeStyle=orthogonalEdgeStyle;" edge="1" parent="1">
          <mxGeometry width="50" height="50" relative="1" as="geometry">
            <mxPoint x="423" y="2057" as="sourcePoint" />
            <mxPoint x="470.25" y="2021" as="targetPoint" />
            <Array as="points">
              <mxPoint x="425" y="2057" />
              <mxPoint x="425" y="2048" />
              <mxPoint x="470" y="2048" />
            </Array>
          </mxGeometry>
        </mxCell>
      </root>
    </mxGraphModel>
  </diagram>
</mxfile>
